PathFileType	3	(X/Y/Z)	D:\minhoCalibration\240510\subject1_KPNP\preferred\preferred11.trc
DataRate	CameraRate	NumFrames	NumMarkers	Units	OrigDataRate	OrigDataStartFrame	OrigNumFrames
200.0	200.0	36	10	mm	200.0	490	246	
Frame#	Time	Left_Ankle_Outer1			Left_Ankle_Inner1			Left_Knee_Outer1			Left_Knee_Inner1			Left_Wrist1			Right_Wrist1			Right_Knee_Inner1			Right_Knee_Outer1			Right_Ankle_Inner1			Right_Ankle_Outer1			
		X1	Y1	Z1	X2	Y2	Z2	X3	Y3	Z3	X4	Y4	Z4	X5	Y5	Z5	X6	Y6	Z6	X7	Y7	Z7	X8	Y8	Z8	X9	Y9	Z9	X10	Y10	Z10	
490	2.44	-507.76248	150.7202	-530.31934	-549.94067	157.24866	-493.79333	-371.59894	566.92542	-397.51688	-472.88422	543.66095	-360.0264	-391.1254	1008.5021	-580.6947	-661.17822	1162.3094	-383.27722	-358.05368	904.99945	-90.419228	-442.06897	970.37854	-40.16021	-543.99597	570.44806	155.13847	-590.26178	625.3067	236.01868
491	2.445	-507.89691	149.78621	-531.73431	-550.40234	156.03662	-495.17557	-372.11682	565.72894	-398.19415	-474.39008	542.5874	-361.00522	-390.27097	1008.3508	-579.16931	-662.87543	1159.1445	-383.45438	-362.24442	897.12946	-89.669388	-449.32355	960.16174	-39.325413	-552.50708	553.34418	139.39876	-601.78088	605.02087	220.91916
492	2.45	-508.12698	148.63234	-532.90204	-550.75079	154.52689	-496.12512	-372.57178	564.64648	-398.88275	-474.68387	541.6004	-362.43954	-389.26166	1008.2364	-577.96295	-664.32788	1155.7444	-384.00592	-367.71219	888.64417	-88.441414	-456.93344	949.67523	-38.693459	-560.14545	536.4361	122.6531	-613.07104	584.6358	204.43396
493	2.455	-508.62204	147.40742	-533.95068	-551.31659	153.34706	-497.33936	-372.8519	563.4588	-399.72351	-475.35007	540.12482	-363.39294	-388.7644	1008.0011	-576.30542	-666.08948	1152.0728	-384.27316	-373.46036	879.88409	-87.425896	-464.56528	938.86084	-38.384659	-569.11279	519.84753	106.47345	-624.31207	565.26495	187.94646
494	2.46	-509.32861	145.98869	-534.57404	-551.96637	152.27696	-498.4267	-373.06412	562.14581	-400.59528	-475.95432	539.07037	-364.52747	-387.54971	1007.7827	-575.43231	-667.73798	1148.2415	-384.5769	-379.74042	870.94751	-86.702522	-472.33737	927.57202	-38.605125	-576.42035	503.97705	88.721527	-635.5213	546.34454	170.92543
495	2.465	-509.81839	145.05583	-535.9646	-552.21997	150.83911	-499.189	-373.1524	560.89105	-401.48965	-476.14233	537.70319	-365.69925	-387.15231	1007.1592	-573.90967	-669.54761	1144.1096	-384.93198	-386.22351	861.97723	-86.392326	-480.30862	916.32208	-39.119953	-584.70557	488.58688	71.506973	-646.72522	527.66504	152.92244
496	2.47	-510.63483	143.69109	-536.83191	-553.42114	150.01666	-500.42169	-373.13989	559.46259	-402.38629	-475.84476	536.79541	-366.46445	-386.45377	1006.7525	-572.53552	-671.02063	1139.8046	-385.43893	-392.95639	852.91272	-86.590324	-488.45547	904.89233	-40.188873	-592.87433	473.50085	53.998791	-657.54779	509.69196	135.05322
497	2.475	-511.55328	142.4016	-537.67035	-554.13623	148.97697	-501.37479	-373.11948	557.98169	-403.3089	-476.26907	535.07404	-367.14615	-385.72949	1006.1843	-571.38043	-672.7041	1135.365	-385.91367	-399.9404	843.80536	-87.204811	-496.69138	893.25464	-41.896194	-600.32336	458.74942	35.532112	-667.92358	491.56531	115.21505
498	2.48	-512.71405	140.97253	-538.07458	-555.36218	147.98737	-502.18188	-372.95236	556.47369	-404.2049	-475.63406	533.7041	-368.02429	-384.74036	1005.6057	-570.36615	-674.30981	1130.7061	-386.58548	-407.142	834.68518	-88.186623	-505.23697	881.80804	-44.030849	-608.89526	444.36728	17.915854	-678.54309	474.957	96.39904
499	2.485	-513.85919	139.58279	-538.73248	-556.43091	146.78008	-502.90286	-372.85342	554.88928	-404.98093	-475.70874	532.33032	-368.1669	-383.83994	1004.8558	-569.31848	-675.82196	1125.9089	-387.28632	-414.37735	825.39673	-89.553764	-513.99194	870.39905	-46.697235	-616.27423	431.11777	-0.75768161	-688.95074	458.49692	76.603104
500	2.49	-514.77783	138.46683	-539.77039	-557.51074	145.58163	-503.44742	-372.6188	553.21106	-405.76889	-475.04977	530.73138	-368.80609	-382.91141	1004.0095	-568.29614	-677.33838	1121.0933	-388.26236	-421.58759	815.81909	-91.081116	-522.87164	858.89465	-49.870834	-624.7699	417.74799	-18.856579	-699.59729	442.87592	57.16201
501	2.495	-515.91156	136.90521	-540.11938	-558.4364	144.32811	-504.09109	-372.55322	551.35126	-406.41302	-474.70441	529.09686	-369.13303	-381.87579	1002.9673	-567.22156	-678.69971	1116.1665	-389.36938	-429.0954	805.8396	-92.763184	-531.85907	847.35382	-53.133083	-632.69177	404.67581	-37.661236	-709.70093	427.66681	37.068008
502	2.5	-516.82001	135.44922	-540.91217	-559.42346	143.07376	-504.90237	-372.35907	549.61768	-407.01981	-474.37366	527.77008	-369.1705	-380.96143	1001.8582	-566.08984	-680.02441	1111.1941	-390.67419	-436.78339	795.51605	-94.598091	-541.052	835.55792	-57.087608	-640.26453	392.85327	-56.505795	-719.50226	413.11093	16.755453
503	2.505	-517.34711	134.31573	-542.1012	-560.21808	141.72791	-505.80923	-372.25381	547.79541	-407.44952	-474.49011	525.76642	-369.31516	-379.90579	1000.7813	-565.0191	-681.22382	1106.1565	-392.18555	-445.00153	784.85388	-96.462837	-550.17413	823.36298	-61.459194	-647.6087	380.81235	-75.144203	-729.11389	399.09213	-3.5057912
504	2.51	-518.0517	132.74663	-542.68762	-560.86719	140.37589	-506.73026	-372.08813	545.98303	-407.75058	-474.26758	523.80591	-369.71771	-379.05084	999.53833	-563.90576	-682.34619	1101.1531	-393.84079	-453.00436	774.00812	-98.609711	-559.53638	811.43622	-65.905548	-656.58795	369.3299	-94.221107	-738.16522	385.49744	-24.20705
505	2.515	-518.52478	131.37062	-543.57623	-561.52344	139.17097	-507.65866	-372.02084	544.08862	-407.8631	-474.08014	522.23181	-369.83459	-378.19931	998.31696	-562.84235	-683.43451	1096.171	-395.64188	-461.20242	763.0213	-101.05183	-568.80017	799.16187	-70.893456	-663.88812	357.70486	-113.74957	-747.40289	372.336	-44.957878
506	2.52	-518.68225	130.17685	-544.84784	-561.55682	137.81725	-508.64667	-371.97742	542.19879	-407.85004	-473.92294	520.43011	-370.19849	-377.38422	996.96295	-561.82849	-684.34534	1091.1893	-397.40024	-469.61142	751.87567	-103.95779	-578.03412	786.95898	-76.26902	-670.1582	347.39145	-134.16162	-756.53119	359.85709	-65.407822
507	2.525	-518.72717	128.86037	-545.75891	-562.11371	136.6373	-509.5827	-371.89786	540.42761	-407.55768	-474.04156	518.76129	-370.23456	-376.77518	995.45813	-560.90918	-685.19696	1086.5376	-399.22937	-478.12857	740.52069	-107.45908	-587.20392	774.86963	-82.026299	-678.34711	335.80484	-152.59541	-765.05658	347.67856	-86.367607
508	2.53	-518.53235	127.59912	-546.73352	-562.2052	135.24289	-510.74268	-371.81641	538.40222	-407.21024	-474.21115	517.15649	-370.34525	-376.1376	993.95752	-560.01758	-686.01489	1081.7986	-401.09558	-486.83994	729.05292	-111.46613	-596.24091	762.94147	-88.380333	-684.328	325.93292	-173.62758	-773.66803	336.27744	-107.23926
509	2.535	-518.26703	125.98516	-547.37598	-561.85144	133.92119	-511.91479	-371.74741	537.15558	-406.54916	-474.46616	515.57593	-370.31714	-375.49442	992.44519	-559.22119	-686.74481	1077.168	-402.9505	-495.56216	717.48956	-115.99537	-605.23132	751.04889	-95.164879	-692.94452	315.6149	-189.114	-781.44031	324.99622	-127.91071
510	2.54	-517.48541	124.84399	-548.60114	-561.71582	132.82011	-513.1214	-371.66229	535.53882	-405.72586	-474.74854	514.04828	-370.31427	-374.97531	990.91083	-558.44891	-687.47943	1072.6987	-404.62061	-504.23962	705.83191	-121.35351	-614.19415	739.30743	-102.4916	-694.84186	308.73093	-208.1581	-789.2467	314.06326	-148.84448
511	2.545	-516.73248	123.47992	-549.56036	-561.26013	131.38231	-514.40314	-371.59402	534.01733	-404.72919	-474.59778	512.79675	-369.62979	-374.5412	989.33813	-557.79156	-688.15466	1068.3413	-406.38278	-512.90735	694.21155	-127.24273	-623.0755	727.65607	-110.34545	-704.14716	296.37485	-227.51688	-796.44904	303.21362	-170.58281
512	2.55	-515.85724	122.03136	-550.42572	-560.80121	129.95589	-515.63989	-371.44073	532.55621	-403.61023	-474.76968	511.33539	-369.2948	-374.19006	987.74841	-557.13379	-688.81805	1064.0424	-407.94418	-521.25519	682.62067	-133.72003	-631.73663	716.05078	-118.80569	-709.23633	286.8407	-247.34427	-804.18237	293.39816	-189.91393
513	2.555	-515.00818	120.61951	-551.32751	-560.38214	129.06642	-517.24066	-371.32489	530.87354	-402.40265	-475.42026	509.43863	-369.28403	-373.7403	986.19818	-556.5921	-689.48633	1059.7839	-409.44669	-529.5249	671.0752	-140.93132	-640.23627	704.6637	-127.88819	-715.87427	278.11487	-264.02206	-811.19196	283.46982	-210.79396
514	2.56	-514.1665	119.27037	-552.12494	-560.63824	128.31514	-520.24463	-371.36166	529.26318	-400.99539	-475.66708	507.82138	-368.78882	-373.39023	984.59698	-555.99915	-690.44165	1055.9302	-410.08899	-537.70477	659.65186	-148.80504	-648.50793	693.44391	-137.38997	-720.62384	269.56537	-282.25058	-817.74475	273.29877	-231.38234
515	2.565	-513.34344	117.77533	-552.88068	-560.13281	126.71931	-521.00012	-371.27469	527.65527	-399.66403	-476.25266	506.06613	-368.16391	-373.00555	983.06555	-555.40234	-690.05505	1050.9221	-414.5672	-545.66412	648.3949	-157.54678	-656.47919	682.31	-147.48544	-726.53326	260.43152	-299.86224	-824.21783	265.08395	-249.49312
516	2.57	-512.76324	116.34882	-553.51447	-559.93311	125.31623	-521.96136	-371.40207	525.92267	-398.26352	-476.09766	504.53098	-367.59814	-372.56512	981.51495	-554.80353	-691.7782	1046.8827	-414.54666	-553.29742	637.22644	-167.01382	-664.05304	671.48779	-157.91641	-731.75513	251.86623	-318.2728	-830.3576	255.98541	-268.50238
517	2.575	-512.25696	114.97342	-554.08624	-559.74585	124.00592	-522.69189	-371.59531	524.20514	-396.90726	-476.47137	502.74277	-367.20322	-371.66971	980.05206	-554.47791	-692.00293	1043.2057	-417.09314	-560.90155	626.39679	-176.95956	-671.35516	660.83344	-168.74106	-736.96069	243.86041	-333.73849	-836.54346	246.36388	-287.28647
518	2.58	-511.94501	113.57198	-554.57562	-559.67145	122.54371	-523.30536	-372.00021	522.5025	-395.59805	-477.05225	500.98569	-366.75006	-371.60022	978.35968	-553.69263	-692.37805	1039.4297	-419.92511	-568.09174	616.14191	-187.34265	-678.26373	650.61523	-180.01427	-742.82703	234.86134	-352.07043	-841.39227	237.31645	-306.62906
519	2.585	-511.82376	112.04089	-554.97491	-559.81335	121.1126	-524.09094	-372.67123	520.74835	-394.38055	-477.78149	499.30624	-366.30313	-371.24939	976.76654	-552.98059	-694.85956	1035.6549	-419.95038	-574.75586	605.7793	-199.028	-684.76385	640.6156	-191.52434	-748.00928	226.2014	-368.68427	-847.39038	228.67747	-323.25897
520	2.59	-511.84351	110.73822	-555.36499	-560.1098	119.77987	-524.57593	-373.4053	519.08569	-393.14548	-479.24658	497.61441	-365.91663	-370.89023	975.21826	-552.22955	-696.63531	1032.4427	-421.12207	-581.59656	595.6051	-210.46619	-690.95416	630.93237	-203.35187	-753.24542	217.93898	-384.99728	-852.98315	220.6909	-338.87991
521	2.595	-512.12476	109.41331	-555.65839	-560.31189	118.20996	-524.57684	-374.17484	517.58282	-392.07892	-480.52316	496.11951	-365.79596	-370.61777	973.69952	-551.39667	-698.617	1028.4409	-423.47546	-588.00458	585.72668	-222.67426	-696.80841	621.42389	-215.49956	-758.65265	209.60614	-401.19977	-858.33838	211.94357	-355.18799
522	2.6	-512.60059	108.1144	-555.8548	-560.94818	117.02262	-524.89343	-375.26495	516.09924	-390.95828	-481.22647	495.08328	-365.91605	-370.6579	972.1366	-550.33673	-700.00653	1024.672	-427.01019	-594.0769	576.51556	-234.87349	-702.42853	612.11743	-227.98965	-763.88153	201.96761	-417.15649	-863.74573	203.20541	-371.80557
523	2.605	-513.27454	106.8661	-555.9978	-561.76324	115.72852	-525.11206	-376.3429	514.67065	-389.87762	-483.21332	493.63007	-365.85916	-370.37677	970.74054	-549.52582	-701.27234	1020.2568	-431.4632	-599.90173	567.44257	-247.95229	-707.8667	603.02332	-240.56706	-768.56006	194.65692	-434.31613	-869.14453	194.45663	-388.314
524	2.61	-513.97021	105.74142	-556.13519	-562.6958	114.44277	-525.2981	-377.57809	513.3681	-388.99561	-484.93234	492.51556	-366.48755	-370.38867	969.38184	-548.52667	-703.66504	1017.1393	-433.46378	-605.52325	558.72485	-261.40106	-713.1814	594.30713	-253.66327	-774.27716	187.29979	-449.39072	-873.95752	186.36687	-403.78668
525	2.615	-514.86511	104.49877	-556.26123	-563.70709	113.2345	-525.35394	-378.8176	512.18848	-388.15793	-486.91782	491.73349	-366.45236	-370.5751	968.04156	-547.44415	-705.00842	1012.5012	-438.40219	-611.01147	550.44739	-275.224	-718.30017	585.75397	-266.97754	-779.62878	179.59558	-464.36615	-878.82532	178.41487	-419.4552
